HIERARCHY
ROOT root
{
	OFFSET 0.000000 0.000000 0.000000
	CHANNELS 6 Xposition Yposition Zposition Zrotation Yrotation Xrotation
	JOINT lhip
	{
		OFFSET 0.058581 -0.082280 -0.017664
		CHANNELS 3 Zrotation Yrotation Xrotation
		JOINT lknee
		{
			OFFSET 0.043451 -0.386469 0.008037
			CHANNELS 3 Zrotation Yrotation Xrotation
			JOINT lankle
			{
				OFFSET -0.014790 -0.426874 -0.037428
				CHANNELS 3 Zrotation Yrotation Xrotation
				JOINT ltoe
				{
					OFFSET 0.041054 -0.060286 0.122042
					CHANNELS 3 Zrotation Yrotation Xrotation
					End Site
					{
						OFFSET 0.000000 0.000000 0.000000
					}
				}
			}
		}
	}
	JOINT rhip
	{
		OFFSET -0.060310 -0.090513 -0.013543
		CHANNELS 3 Zrotation Yrotation Xrotation
		JOINT rknee
		{
			OFFSET -0.043257 -0.383688 -0.004843
			CHANNELS 3 Zrotation Yrotation Xrotation
			JOINT rankle
			{
				OFFSET 0.019056 -0.420046 -0.034562
				CHANNELS 3 Zrotation Yrotation Xrotation
				JOINT rtoe
				{
					OFFSET -0.034840 -0.062106 0.130323
					CHANNELS 3 Zrotation Yrotation Xrotation
					End Site
					{
						OFFSET 0.000000 0.000000 0.000000
					}
				}
			}
		}
	}
	JOINT lowerback
	{
		OFFSET 0.004439 0.124404 -0.038385
		CHANNELS 3 Zrotation Yrotation Xrotation
		JOINT upperback
		{
			OFFSET 0.004488 0.137956 0.026820
			CHANNELS 3 Zrotation Yrotation Xrotation
			JOINT chest
			{
				OFFSET -0.002265 0.056032 0.002855
				CHANNELS 3 Zrotation Yrotation Xrotation
				JOINT lowerneck
				{
					OFFSET -0.013390 0.211636 -0.033468
					CHANNELS 3 Zrotation Yrotation Xrotation
					JOINT upperneck
					{
						OFFSET 0.010113 0.088937 0.050410
						CHANNELS 3 Zrotation Yrotation Xrotation
						End Site
						{
							OFFSET 0.000000 0.000000 0.000000
						}
					}
				}
				JOINT lclavicle
				{
					OFFSET 0.071702 0.114000 -0.018898
					CHANNELS 3 Zrotation Yrotation Xrotation
					JOINT lshoulder
					{
						OFFSET 0.122921 0.045205 -0.019046
						CHANNELS 3 Zrotation Yrotation Xrotation
						JOINT lelbow
						{
							OFFSET 0.255332 -0.015649 -0.022946
							CHANNELS 3 Zrotation Yrotation Xrotation
							JOINT lwrist
							{
								OFFSET 0.265709 0.012698 -0.007375
								CHANNELS 3 Zrotation Yrotation Xrotation
								End Site
								{
									OFFSET 0.000000 0.000000 0.000000
								}
							}
						}
					}
				}
				JOINT rclavicle
				{
					OFFSET -0.082954 0.112472 -0.023707
					CHANNELS 3 Zrotation Yrotation Xrotation
					JOINT rshoulder
					{
						OFFSET -0.113228 0.046853 -0.008472
						CHANNELS 3 Zrotation Yrotation Xrotation
						JOINT relbow
						{
							OFFSET -0.260127 -0.014369 -0.031269
							CHANNELS 3 Zrotation Yrotation Xrotation
							JOINT rwrist
							{
								OFFSET -0.269108 0.006794 -0.006027
								CHANNELS 3 Zrotation Yrotation Xrotation
								End Site
								{
									OFFSET 0.000000 0.000000 0.000000
								}
							}
						}
					}
				}
			}
		}
	}
}
MOTION
Frames: 5
Frame Time: 0.033333
-1.824864 0.267315 0.940505 86.876847 0.726607 86.130164 1.820657 2.043038 -2.984937 -6.564347 -0.860378 91.124730 0.039655 7.332745 14.549836 0.000000 -0.000000 0.000000 12.520327 7.720911 -14.753499 -2.471587 -2.684870 42.071328 -8.140830 -15.186395 -20.001129 0.000000 -0.000000 0.000000 -0.458410 -4.339741 23.538433 1.962760 5.556800 -8.420278 0.468989 -0.679235 2.425101 0.458632 1.829768 -20.607727 -0.534620 3.248210 9.725143 -29.693857 9.762221 -0.802806 -49.974162 0.787458 16.238616 -154.748731 -76.036306 170.275313 4.275877 -12.381221 -29.559849 30.402015 -1.966412 -3.508237 51.591914 -6.728389 22.646925 -143.675111 76.736440 -129.813392 1.200059 14.354523 -15.838669 
-1.724376 0.272688 0.926927 87.529302 -1.387324 89.225137 1.276120 -3.230040 -17.937345 -4.522537 4.661090 96.572164 3.350745 6.779057 6.362580 0.000000 -0.000000 0.000000 9.906873 5.095834 -9.539197 -1.342430 -0.774130 40.595704 -7.758479 -15.830982 -25.983849 0.000000 -0.000000 0.000000 0.025171 0.044685 18.458822 2.637243 2.193169 -6.114547 -0.778767 -0.541600 2.190037 0.353410 1.424277 -20.106776 -1.293329 1.996867 7.391845 -29.163579 10.471278 1.120600 -50.011293 3.801280 14.006705 -149.429724 -76.098347 168.511871 2.645323 -12.422402 -28.456649 29.708317 -0.597175 -1.634725 52.740364 0.729254 20.698487 -150.746666 74.296110 -133.514380 1.078335 15.565054 -20.504623 
-1.620098 0.276839 0.931405 85.722592 -3.213392 90.440701 1.894925 -4.903961 -28.627068 -3.324941 8.966723 93.529805 4.074271 5.372906 3.471103 0.000000 -0.000000 0.000000 7.099411 0.950802 -0.999129 -0.741196 3.938961 35.900360 -5.031713 -13.297278 -24.973949 0.000000 -0.000000 0.000000 -0.396012 4.533296 18.082583 1.658736 1.826617 -7.278625 -1.162154 0.571095 2.336597 0.312912 0.155430 -20.660500 -0.726758 0.574668 8.224925 -27.574495 11.723771 1.121571 -49.580390 7.888792 14.157793 -146.849148 -72.459519 164.472527 4.862714 -12.387822 -32.143804 27.955084 0.212301 -2.770069 54.832948 2.699351 21.293043 -153.828858 68.428178 -137.335274 0.131148 15.247260 -20.626082 
-1.476815 0.280260 0.953374 82.808570 -5.034068 91.747000 2.343748 -5.706880 -35.556749 -2.420220 13.319611 78.272178 1.358504 3.435916 -3.730540 0.000000 -0.000000 0.000000 1.707847 -1.586639 9.069514 -1.857904 7.580898 29.070001 4.048727 -3.947016 -12.332995 0.000000 -0.000000 0.000000 -1.494999 9.534699 15.759621 0.862729 2.085287 -6.983590 -1.482025 2.466232 1.402561 -0.094463 -0.541494 -17.548892 -0.498387 -1.680856 6.621009 -25.483898 14.305222 2.103570 -49.803926 12.080072 13.621120 -146.515317 -69.349959 163.033594 2.513521 -14.659494 -32.971401 27.194862 -0.814769 -2.803518 55.393675 4.618704 20.815813 -157.867453 63.906860 -142.675440 -0.320676 16.603933 -20.383528 
-1.388822 0.282092 0.969138 83.749476 -6.204703 91.722476 1.990477 -8.890528 -36.777410 -3.494589 15.088424 64.800214 0.412256 3.232016 -3.953900 0.000000 -0.000000 0.000000 -2.775658 -4.051159 14.667519 -1.947768 7.267543 24.357866 10.149697 0.756105 4.475005 0.000000 -0.000000 0.000000 -2.011686 12.262368 11.082329 1.569955 0.220339 -0.255208 -1.876302 2.776826 0.928798 -0.841910 -0.989504 -18.288986 -0.642763 -3.151668 4.770523 -24.688394 14.435974 1.755948 -52.726156 12.678768 13.686507 -149.681875 -70.946759 165.657978 1.630592 -14.575837 -31.997990 26.366535 -1.003778 -3.647324 55.085931 6.486626 21.173060 -157.019578 62.619506 -141.479794 1.378175 16.469514 -19.067636 
